# xmcd
#
# Track frame offsets: 
#        182
#        19107
#        29287
#        51895
#        65012
#        80727
#        98380
#        111047
#        126880
#        141087
#
# Disc length: 2096 seconds
#
# Revision: 3
# Processed by: cddbd v1.4PL0 Copyright (c) Steve Scherf et al.
# Submitted via: ExactAudioCopy v0.90a11
#
DISCID=81082e0a
DTITLE=Paul Brandt - A Paul Brandt Christmas (Shall I Play for You?)
DYEAR=1998
DGENRE=
TTITLE0=The Little Drummer Boy
TTITLE1=Santa Looked A Lot Like Daddy
TTITLE2=What Child Is This
TTITLE3=Run Run Rudolph
TTITLE4=A Star Is Born
TTITLE5=The Way In A Manger
TTITLE6=Jingle Bells
TTITLE7=Silent Night
TTITLE8=Six Tons Of Toys
TTITLE9=O Holy Night
EXTD=This selection of Christmas Hymns and Tunes shows the true talent
EXTD=of a Canadian country singer. His voice is definitely inspiring 
EXTD=to say the least, so hop aboard this Spiritual ride. YEAR: 1998 I
EXTD=D3G:  12
EXTT0=
EXTT1=
EXTT2=
EXTT3=
EXTT4=
EXTT5=
EXTT6=
EXTT7=
EXTT8=
EXTT9=
PLAYORDER=
